<svg width="36" height="24" viewBox="0 0 36 24" fill="none" xmlns="http://www.w3.org/2000/svg">
<path fill-rule="evenodd" clip-rule="evenodd" d="M24.6133 12V18.6133H18C14.3476 18.6133 11.3867 15.6524 11.3867 12C11.3867 8.34756 14.3476 5.38667 18 5.38667C21.6524 5.38667 24.6133 8.34756 24.6133 12ZM10 12C10 7.58172 13.5817 4 18 4C22.4183 4 26 7.58172 26 12V20H18C13.5817 20 10 16.4183 10 12ZM13.1804 12.3168C13.1804 13.9676 14.2884 15.3583 16.0636 15.3583C17.5221 15.3583 18.5058 14.3972 18.7433 13.1422H17.3073C17.1264 13.7188 16.6628 14.0693 16.0636 14.0693C15.1703 14.0693 14.5824 13.3683 14.5824 12.3168C14.5824 11.2653 15.1703 10.5643 16.0636 10.5643C16.6402 10.5643 17.0925 10.8922 17.2847 11.4349H18.7319C18.4719 10.2138 17.4995 9.27532 16.0636 9.27532C14.2884 9.27532 13.1804 10.666 13.1804 12.3168ZM20.6718 9.43362H19.315V15.2H20.7284V12.1924C20.7284 11.6271 20.8867 11.254 21.158 11.0279C21.3955 10.813 21.712 10.7 22.2208 10.7H22.5827V9.36578H22.2322C21.4859 9.36578 20.9884 9.63714 20.6718 10.0555V9.43362Z" fill="white"/>
</svg>
