<svg width="36" height="24" viewBox="0 0 36 24" fill="none" xmlns="http://www.w3.org/2000/svg">
<path fill-rule="evenodd" clip-rule="evenodd" d="M24.6133 12V18.6133H18C14.3476 18.6133 11.3867 15.6524 11.3867 12C11.3867 8.34756 14.3476 5.38667 18 5.38667C21.6524 5.38667 24.6133 8.34756 24.6133 12ZM10 12C10 7.58172 13.5817 4 18 4C22.4183 4 26 7.58172 26 12V20H18C13.5817 20 10 16.4183 10 12ZM13.1804 12.3168C13.1804 13.9676 14.2884 15.3583 16.0636 15.3583C17.5221 15.3583 18.5058 14.3972 18.7433 13.1422H17.3073C17.1264 13.7188 16.6628 14.0693 16.0636 14.0693C15.1703 14.0693 14.5824 13.3683 14.5824 12.3168C14.5824 11.2653 15.1703 10.5643 16.0636 10.5643C16.6402 10.5643 17.0925 10.8922 17.2847 11.4349H18.7319C18.4719 10.2138 17.4995 9.27532 16.0636 9.27532C14.2884 9.27532 13.1804 10.666 13.1804 12.3168ZM20.6718 9.43362H19.315V15.2H20.7284V12.1924C20.7284 11.6271 20.8867 11.254 21.158 11.0279C21.3955 10.813 21.712 10.7 22.2208 10.7H22.5827V9.36578H22.2322C21.4859 9.36578 20.9884 9.63714 20.6718 10.0555V9.43362Z" fill="white"/>
<path d="M21 15.875C21 15.3918 21.3918 15 21.875 15H27.125C27.6082 15 28 15.3918 28 15.875V21.125C28 21.6082 27.6082 22 27.125 22H21.875C21.3918 22 21 21.6082 21 21.125V15.875Z" fill="#C22F22"/>
<path d="M26.0991 16.3678L24.5 17.9671L22.9009 16.3678C22.8273 16.2942 22.708 16.2942 22.6344 16.3678L22.3677 16.6343C22.2941 16.7079 22.2941 16.8272 22.3677 16.9007L23.967 18.5L22.3677 20.0992C22.2941 20.1728 22.2941 20.2921 22.3677 20.3656L22.6342 20.6323C22.7078 20.7059 22.8271 20.7059 22.9007 20.6323L24.5 19.033L26.0991 20.6323C26.1727 20.7059 26.292 20.7059 26.3656 20.6323L26.6323 20.3658C26.7059 20.2922 26.7059 20.1729 26.6323 20.0993L25.033 18.5L26.6323 16.9009C26.7059 16.8273 26.7059 16.708 26.6323 16.6344L26.3658 16.3678C26.3305 16.3324 26.2826 16.3125 26.2326 16.3125C26.1826 16.3125 26.1347 16.3323 26.0993 16.3676L26.0991 16.3678Z" fill="white"/>
</svg>
