<svg width="153" height="115" viewBox="0 0 153 115" fill="none" xmlns="http://www.w3.org/2000/svg">
<path fill-rule="evenodd" clip-rule="evenodd" d="M0 0H153V114.714H0V0Z" fill="black"/>
<path fill-rule="evenodd" clip-rule="evenodd" d="M138.655 56.8577C138.465 36.8126 137.704 28.0721 132.955 21.8965C132.1 20.5674 130.485 19.8073 129.155 18.8579C124.5 15.4371 102.554 14.2026 77.0939 14.2026C51.6333 14.2026 28.6434 15.4371 24.0833 18.8579C22.658 19.8073 21.0425 20.5674 20.0931 21.8965C15.4375 28.0721 14.773 36.8126 14.488 56.8577C14.773 76.904 15.4375 85.6438 20.0931 91.8188C21.0425 93.2438 22.658 93.9087 24.0833 94.8587C28.6434 98.3741 51.6333 99.514 77.0939 99.7039C102.554 99.514 124.5 98.3741 129.155 94.8587C130.485 93.9087 132.1 93.2438 132.955 91.8188C137.704 85.6438 138.465 76.904 138.655 56.8577Z" fill="white"/>
<path d="M138.655 56.8577C138.465 36.8126 137.704 28.0721 132.955 21.8965C132.1 20.5674 130.485 19.8073 129.155 18.8579C124.5 15.4371 102.554 14.2026 77.0939 14.2026C51.6333 14.2026 28.6434 15.4371 24.0833 18.8579C22.658 19.8073 21.0425 20.5674 20.0931 21.8965C15.4375 28.0721 14.773 36.8126 14.488 56.8577C14.773 76.904 15.4375 85.6438 20.0931 91.8188C21.0425 93.2438 22.658 93.9087 24.0833 94.8587C28.6434 98.3741 51.6333 99.514 77.0939 99.7039C102.554 99.514 124.5 98.3741 129.155 94.8587C130.485 93.9087 132.1 93.2438 132.955 91.8188C137.704 85.6438 138.465 76.904 138.655 56.8577Z" stroke="black" stroke-width="0.0238742"/>
<path fill-rule="evenodd" clip-rule="evenodd" d="M73.7386 51.6668C72.4499 35.9812 64.1075 26.7399 49.1854 26.7399C35.5519 26.7399 24.8352 39.0336 24.8352 58.7888C24.8352 78.6287 34.6025 91.007 50.7453 91.007C63.6325 91.007 72.6537 81.5114 74.078 65.7407H58.6811C58.0706 71.5914 55.6289 76.0853 50.474 76.0853C42.3347 76.0853 40.8426 68.0305 40.8426 59.4671C40.8426 47.6813 44.234 41.6622 49.8635 41.6622C54.8829 41.6622 58.0706 45.3076 58.5454 51.6668H73.7386Z" fill="black"/>
<path fill-rule="evenodd" clip-rule="evenodd" d="M126.917 51.6668C125.629 35.9812 117.286 26.7399 102.364 26.7399C88.7304 26.7399 78.0143 39.0336 78.0143 58.7888C78.0143 78.6287 87.781 91.007 103.924 91.007C116.811 91.007 125.832 81.5114 127.256 65.7407H111.859C111.25 71.5914 108.808 76.0853 103.653 76.0853C95.5134 76.0853 94.0209 68.0305 94.0209 59.4671C94.0209 47.6813 97.4128 41.6622 103.042 41.6622C108.061 41.6622 111.25 45.3076 111.724 51.6668H126.917Z" fill="black"/>
</svg>
